<svg id="svg" version="1.1" xmlns="http://www.w3.org/2000/svg" xmlns:xlink="http://www.w3.org/1999/xlink" width="400" height="400" viewBox="0, 0, 400,400"><g id="svgg"><path id="path0" d="M221.791 22.972 C 201.726 28.407,198.317 56.460,216.571 65.933 C 233.117 74.520,251.667 63.581,251.667 45.238 C 251.667 30.045,236.743 18.922,221.791 22.972 M166.000 23.872 C 155.026 25.976,147.792 27.566,147.304 27.984 C 146.782 28.430,154.264 67.980,155.490 71.250 C 155.696 71.800,156.771 71.776,159.728 71.154 C 163.350 70.393,163.252 70.731,161.860 63.793 C 160.605 57.538,160.480 56.488,160.959 56.192 C 161.120 56.092,163.483 55.547,166.209 54.980 C 178.432 52.439,184.681 47.850,186.067 40.398 C 187.865 30.729,176.983 21.766,166.000 23.872 M231.036 29.674 C 241.397 31.639,246.534 42.968,241.677 53.145 C 236.282 64.450,220.032 64.465,214.474 53.170 C 208.599 41.231,218.431 27.283,231.036 29.674 M172.565 32.205 C 177.182 35.059,177.369 42.130,172.914 45.357 C 170.524 47.089,160.093 49.575,159.163 48.634 C 158.238 47.699,155.640 33.595,156.316 33.177 C 159.370 31.290,170.051 30.651,172.565 32.205 M275.016 39.549 C 273.199 42.743,272.974 42.405,279.536 46.360 C 284.066 49.090,284.832 49.670,284.821 50.360 C 284.814 50.804,280.736 57.995,275.738 66.376 C 270.749 74.741,266.667 81.805,266.667 82.074 C 266.667 82.936,271.279 86.000,272.577 86.000 C 273.088 86.000,275.177 82.732,282.006 71.250 C 292.256 54.016,291.834 54.665,292.773 54.671 C 293.173 54.674,295.881 56.094,298.790 57.828 C 302.897 60.275,304.211 60.911,304.662 60.669 C 305.647 60.142,308.078 55.747,307.729 55.123 C 307.283 54.326,278.124 37.000,277.229 37.000 C 276.627 37.000,276.160 37.537,275.016 39.549 M115.167 40.432 C 113.367 41.400,112.476 42.077,112.426 42.516 C 112.336 43.314,132.043 81.016,132.799 81.492 C 133.457 81.907,139.113 79.138,139.254 78.333 C 139.425 77.362,119.233 39.175,118.500 39.083 C 118.133 39.037,116.633 39.644,115.167 40.432 M81.352 64.083 C 80.066 65.412,79.011 66.671,79.007 66.879 C 79.003 67.088,82.225 70.415,86.167 74.272 C 91.108 79.108,93.333 81.508,93.333 82.003 C 93.333 82.950,78.444 98.331,77.525 98.332 C 77.135 98.333,74.118 95.587,69.833 91.333 C 61.717 83.274,62.241 83.506,59.221 86.634 C 56.448 89.507,56.422 89.282,59.915 92.633 C 61.520 94.173,68.552 101.035,75.541 107.883 C 83.276 115.462,88.497 120.333,88.884 120.333 C 89.804 120.333,93.667 116.333,93.667 115.380 C 93.667 114.825,92.226 113.215,88.500 109.603 C 85.515 106.710,83.333 104.336,83.333 103.981 C 83.333 103.246,98.520 87.667,99.236 87.667 C 99.506 87.667,102.050 89.879,104.891 92.583 C 107.731 95.287,110.272 97.622,110.537 97.772 C 111.194 98.143,115.667 93.846,115.667 92.844 C 115.667 91.992,84.902 61.667,84.038 61.667 C 83.846 61.667,82.637 62.754,81.352 64.083 M312.578 86.549 C 295.666 101.051,294.667 101.943,294.667 102.551 C 294.667 102.952,313.207 124.759,314.229 125.560 C 315.099 126.243,319.667 122.965,319.667 121.659 C 319.667 121.343,316.431 117.318,312.476 112.715 C 307.372 106.776,305.316 104.151,305.393 103.673 C 305.457 103.267,310.951 98.311,319.162 91.249 C 326.676 84.787,332.876 79.231,332.940 78.901 C 333.087 78.134,329.054 73.355,328.245 73.338 C 328.105 73.336,321.055 79.280,312.578 86.549 M43.711 117.580 C 29.412 126.039,27.576 146.219,40.175 156.432 C 55.663 168.987,78.346 158.071,78.475 138.000 C 78.526 130.084,77.665 128.649,73.604 129.883 C 69.855 131.022,69.800 131.089,70.463 133.736 C 74.049 148.035,60.947 158.323,47.708 151.603 C 36.483 145.906,36.266 130.992,47.312 124.399 C 50.393 122.560,50.405 122.517,48.747 119.173 C 47.077 115.806,46.838 115.730,43.711 117.580 M229.630 119.662 L 221.094 120.917 208.797 130.913 C 202.034 136.411,194.850 142.275,192.833 143.945 L 189.167 146.981 184.927 146.991 L 180.688 147.000 175.713 144.799 L 170.738 142.598 168.286 144.251 C 166.937 145.161,165.196 146.229,164.417 146.626 C 163.637 147.022,163.000 147.381,163.000 147.423 C 163.001 147.466,164.688 147.500,166.750 147.500 C 170.880 147.501,171.815 147.807,174.565 150.059 C 175.309 150.668,176.198 151.339,176.542 151.549 C 177.727 152.275,173.617 153.172,164.521 154.174 C 161.965 154.455,159.496 154.781,159.032 154.897 C 158.133 155.123,144.090 168.535,143.461 169.769 C 143.256 170.171,143.002 172.825,142.897 175.667 C 142.791 178.508,142.096 186.608,141.353 193.667 C 139.712 209.258,139.727 207.377,141.182 215.833 C 142.144 221.421,142.599 223.270,143.438 225.000 C 146.117 230.525,167.527 260.760,174.265 268.534 C 177.932 272.765,186.245 276.784,192.461 277.330 C 194.316 277.493,198.083 277.856,200.833 278.137 C 223.398 280.443,235.856 279.512,240.045 275.205 C 245.349 269.753,248.628 263.996,248.922 259.619 L 249.071 257.404 247.408 257.047 C 240.708 255.610,219.742 243.626,217.119 239.734 C 216.132 238.269,215.333 234.606,215.333 231.539 C 215.333 228.615,215.033 227.682,213.481 225.788 C 211.996 223.976,212.009 223.913,214.141 222.710 C 216.453 221.406,217.333 220.223,219.301 215.779 C 222.004 209.678,223.537 206.880,225.464 204.529 C 229.261 199.897,231.985 191.114,231.588 184.787 C 231.434 182.346,231.410 182.289,228.963 178.632 C 228.301 177.643,226.232 173.923,224.365 170.367 C 220.130 162.296,219.544 161.448,217.851 160.927 C 216.316 160.454,216.988 160.095,219.523 160.033 C 223.103 159.946,226.000 158.090,226.000 155.886 L 226.000 155.001 221.708 155.022 C 216.714 155.047,215.688 154.743,213.961 152.726 C 211.760 150.154,211.774 150.545,213.623 143.151 L 215.286 136.500 217.393 134.569 C 225.414 127.217,227.523 126.365,237.765 126.344 L 243.031 126.333 245.905 132.189 C 249.352 139.210,249.394 138.723,244.996 142.587 C 241.230 145.896,241.071 146.165,243.052 145.868 C 243.860 145.747,246.483 145.641,248.880 145.633 L 253.238 145.618 254.786 140.032 C 256.730 133.012,256.799 133.709,253.739 129.447 C 252.312 127.459,250.356 124.689,249.392 123.290 C 247.512 120.563,247.379 120.479,242.667 119.015 C 239.911 118.159,239.815 118.164,229.630 119.662 M341.087 128.566 C 326.566 134.027,320.957 136.278,320.822 136.701 C 320.585 137.450,331.707 167.014,332.388 167.444 C 333.074 167.877,338.125 165.968,338.273 165.220 C 338.331 164.924,336.464 159.569,334.122 153.319 C 329.194 140.163,329.193 141.415,334.134 139.572 C 338.771 137.842,338.236 137.312,342.009 147.369 C 345.641 157.049,345.262 156.623,348.997 155.219 C 352.158 154.031,352.182 154.536,348.506 144.824 C 346.087 138.432,345.332 136.077,345.576 135.689 C 346.075 134.896,357.999 130.503,358.609 130.888 C 358.880 131.059,360.966 136.141,363.243 142.183 C 365.521 148.224,367.589 153.377,367.838 153.634 C 368.376 154.188,373.172 152.574,373.760 151.641 C 374.385 150.648,363.044 121.186,362.000 121.091 C 361.542 121.050,352.131 124.414,341.087 128.566 M188.914 162.083 C 189.095 162.313,189.328 163.162,189.431 163.971 C 190.049 168.825,197.606 170.357,202.259 166.571 C 204.632 164.640,207.667 162.667,208.265 162.667 C 208.462 162.667,209.863 164.279,211.378 166.250 C 212.894 168.221,214.757 170.583,215.520 171.500 C 216.938 173.205,218.395 175.578,222.658 183.125 C 225.408 187.994,225.437 188.228,223.966 193.704 C 222.744 198.257,214.693 212.219,210.335 217.344 C 207.922 220.182,207.112 226.125,208.746 229.000 C 211.308 233.508,213.071 241.930,212.027 244.675 C 211.007 247.360,211.073 247.667,212.677 247.667 C 214.736 247.667,215.703 248.215,222.168 253.051 C 225.467 255.519,228.877 258.023,229.745 258.615 C 231.772 259.998,232.187 260.745,231.648 262.045 C 230.756 264.197,225.620 267.590,220.905 269.142 C 216.315 270.652,191.374 268.473,183.103 265.839 C 178.082 264.241,179.468 265.957,159.678 236.833 C 156.688 232.433,153.112 227.333,151.731 225.500 C 150.350 223.667,148.986 221.567,148.699 220.833 C 147.275 217.190,149.152 178.361,150.881 175.710 C 153.480 171.725,159.679 164.464,160.888 163.989 C 161.858 163.607,171.215 162.727,180.000 162.191 C 183.942 161.951,187.486 161.734,187.876 161.710 C 188.266 161.686,188.733 161.854,188.914 162.083 M174.231 174.494 C 170.967 175.104,167.217 175.707,165.898 175.834 C 160.413 176.363,160.131 176.743,157.797 186.734 C 155.755 195.477,155.649 197.181,156.330 210.262 C 156.740 218.145,159.784 227.072,163.627 231.667 C 164.317 232.492,166.127 234.892,167.650 237.000 C 171.448 242.260,173.179 244.236,174.963 245.346 C 177.034 246.635,177.021 246.579,174.319 242.458 C 169.473 235.067,165.109 225.099,162.955 216.500 C 160.263 205.751,161.983 185.305,165.749 183.289 C 166.648 182.808,174.084 181.497,180.545 180.681 C 191.676 179.274,205.086 182.586,207.691 187.387 C 208.071 188.086,208.211 187.758,201.114 202.782 C 193.114 219.717,193.863 217.322,194.318 224.500 C 194.951 234.477,195.253 235.880,198.442 243.667 C 202.811 254.335,202.850 254.964,199.024 253.012 C 194.048 250.474,192.525 248.496,183.998 233.500 C 175.165 217.964,175.208 218.109,175.669 205.833 C 176.081 194.830,176.216 194.415,179.600 193.704 C 186.119 192.335,192.690 195.098,192.662 199.196 C 192.652 200.778,187.899 213.667,187.326 213.667 C 187.173 213.667,186.953 212.804,186.837 211.750 C 186.435 208.106,186.407 208.045,184.949 207.653 C 182.196 206.912,181.892 207.138,181.378 210.314 C 180.240 217.341,185.303 223.453,188.496 218.907 C 190.240 216.424,196.484 198.075,196.165 196.372 C 195.012 190.227,191.536 188.119,183.071 188.435 C 171.306 188.872,169.947 190.905,169.866 208.171 L 169.833 215.176 171.363 218.338 C 172.205 220.077,175.748 226.525,179.237 232.667 C 182.726 238.808,185.968 244.602,186.442 245.543 C 187.654 247.948,190.688 251.627,194.539 255.360 L 197.833 258.554 201.522 259.767 C 211.541 263.064,215.285 261.250,209.636 255.837 C 205.386 251.764,199.810 236.647,198.829 226.541 C 198.035 218.362,198.044 218.319,201.539 212.593 C 209.558 199.457,211.875 195.510,213.690 191.892 C 216.172 186.943,216.204 187.285,212.851 182.872 C 207.868 176.313,205.128 174.225,203.365 175.642 C 201.519 177.125,201.011 177.372,199.051 177.736 C 195.512 178.394,187.780 176.759,182.863 174.313 C 181.780 173.774,180.730 173.345,180.530 173.359 C 180.330 173.373,177.496 173.884,174.231 174.494 M39.291 198.228 C 35.705 200.453,37.429 206.333,41.667 206.333 C 45.937 206.333,47.640 200.370,43.987 198.212 C 42.810 197.517,40.423 197.525,39.291 198.228 M355.958 198.228 C 352.372 200.453,354.096 206.333,358.333 206.333 C 362.603 206.333,364.307 200.370,360.653 198.212 C 359.477 197.517,357.090 197.525,355.958 198.228 M49.399 243.318 C 43.113 245.666,37.896 247.659,37.807 247.748 C 37.659 247.897,39.098 252.209,39.395 252.506 C 39.466 252.577,42.143 251.661,45.345 250.472 C 48.547 249.282,51.962 248.014,52.934 247.653 L 54.701 246.996 53.715 248.415 C 53.173 249.195,51.517 251.478,50.035 253.487 C 48.554 255.497,47.452 257.243,47.587 257.367 C 47.723 257.491,50.308 258.152,53.333 258.836 C 56.358 259.520,59.011 260.175,59.229 260.291 C 59.446 260.408,56.202 261.770,52.019 263.319 L 44.414 266.135 45.231 268.318 C 45.681 269.518,46.171 270.626,46.320 270.779 C 46.522 270.987,68.943 262.985,69.620 262.464 C 69.855 262.283,67.908 257.493,67.449 257.123 C 67.192 256.916,64.436 256.247,61.324 255.636 C 58.213 255.025,55.667 254.405,55.667 254.259 C 55.667 254.113,57.210 252.007,59.097 249.580 C 60.983 247.153,62.630 244.999,62.756 244.794 C 62.953 244.473,61.422 239.644,60.985 239.207 C 60.899 239.121,55.685 240.971,49.399 243.318 M359.044 248.837 C 358.104 251.519,357.240 254.089,357.124 254.550 C 356.792 255.873,356.654 255.845,346.926 252.517 C 341.847 250.779,337.631 249.464,337.557 249.595 C 337.256 250.128,335.940 254.383,336.049 254.470 C 336.398 254.748,359.374 262.404,359.496 262.282 C 359.701 262.077,365.360 245.578,365.254 245.493 C 365.206 245.455,364.342 245.156,363.333 244.830 C 362.325 244.503,361.332 244.174,361.126 244.099 C 360.904 244.017,360.062 245.931,359.044 248.837 M66.087 281.598 C 60.249 285.596,56.070 288.670,56.155 288.903 C 56.297 289.293,64.291 301.056,65.904 303.250 L 66.700 304.333 68.638 302.966 L 70.575 301.600 66.788 296.078 C 62.324 289.572,62.527 290.486,65.161 288.756 L 67.309 287.345 69.546 290.589 C 74.636 297.970,73.777 297.441,76.898 295.120 L 77.963 294.327 74.622 289.468 C 72.784 286.795,71.330 284.575,71.390 284.535 C 71.451 284.494,72.250 283.937,73.167 283.297 C 74.083 282.656,75.009 282.026,75.224 281.896 C 75.476 281.743,76.883 283.525,79.185 286.913 C 81.148 289.802,82.873 292.297,83.017 292.456 C 83.397 292.876,87.034 290.266,86.830 289.718 C 86.540 288.939,76.637 274.666,76.397 274.681 C 76.270 274.689,71.631 277.801,66.087 281.598 M344.969 281.366 C 343.244 284.272,341.738 286.653,341.621 286.658 C 341.504 286.663,337.615 284.402,332.980 281.635 C 323.430 275.934,324.538 276.151,322.599 279.604 L 321.698 281.209 332.412 287.584 L 343.126 293.959 347.741 286.269 C 350.279 282.039,352.314 278.546,352.261 278.506 C 352.209 278.466,351.253 277.904,350.136 277.258 L 348.105 276.082 344.969 281.366 M310.725 294.996 L 308.968 296.992 310.067 297.954 C 310.672 298.483,314.917 302.170,319.500 306.146 L 327.833 313.376 329.583 311.438 C 330.545 310.372,331.295 309.407,331.249 309.294 C 331.169 309.093,312.707 293.000,312.557 293.000 C 312.516 293.000,311.691 293.898,310.725 294.996 M94.552 299.559 C 94.456 299.893,93.968 303.092,93.468 306.667 C 92.968 310.242,92.455 313.287,92.328 313.434 C 92.202 313.581,88.902 314.443,84.994 315.350 C 81.087 316.257,77.844 317.045,77.787 317.101 C 77.731 317.158,78.618 318.127,79.759 319.255 L 81.833 321.306 86.936 320.019 L 92.039 318.732 91.860 319.616 C 91.761 320.102,91.368 322.373,90.986 324.661 L 90.291 328.822 92.532 330.994 C 93.852 332.273,94.831 332.996,94.914 332.752 C 94.991 332.523,95.530 329.088,96.111 325.118 L 97.167 317.899 104.167 316.280 C 108.017 315.390,111.249 314.625,111.350 314.581 C 111.450 314.536,110.546 313.575,109.339 312.445 L 107.145 310.391 102.572 311.583 C 100.056 312.239,97.914 312.692,97.812 312.589 C 97.709 312.487,97.935 310.625,98.314 308.451 C 98.693 306.278,99.040 304.200,99.085 303.833 C 99.205 302.854,94.799 298.700,94.552 299.559 M295.901 310.814 C 293.998 311.493,292.314 312.710,283.388 319.856 C 283.327 319.905,286.767 324.363,291.034 329.763 L 298.792 339.580 300.905 337.919 C 302.312 336.813,302.921 336.131,302.727 335.879 C 302.567 335.670,301.512 334.317,300.384 332.871 C 297.941 329.741,297.978 330.003,299.784 328.522 C 301.566 327.062,301.283 327.055,306.312 328.682 C 308.592 329.420,310.654 329.948,310.894 329.856 C 311.614 329.580,315.730 326.186,315.437 326.109 C 315.288 326.070,312.954 325.347,310.250 324.502 L 305.334 322.965 305.852 321.965 C 308.989 315.897,302.388 308.500,295.901 310.814 M300.200 316.800 C 301.481 318.081,301.741 319.936,300.824 321.245 C 300.227 322.098,295.513 326.007,295.110 325.985 C 294.877 325.972,292.647 323.228,291.063 321.008 C 290.670 320.456,290.854 320.212,292.896 318.574 C 297.016 315.271,298.348 314.948,300.200 316.800 M116.167 332.302 C 112.683 337.955,109.833 342.757,109.833 342.974 C 109.833 343.660,113.888 346.038,114.262 345.572 C 114.763 344.946,126.706 325.618,126.894 325.129 C 127.040 324.748,124.145 322.593,122.916 322.168 C 122.662 322.080,120.029 326.033,116.167 332.302 M264.000 330.448 C 252.632 334.472,251.247 349.519,261.772 354.652 C 268.041 357.709,277.578 354.207,280.447 347.796 L 281.060 346.425 278.826 341.571 L 276.593 336.717 274.047 337.887 C 272.646 338.531,270.487 339.515,269.250 340.073 C 268.012 340.632,267.000 341.201,267.000 341.338 C 267.000 341.638,268.675 345.333,268.812 345.333 C 268.865 345.333,269.900 344.883,271.113 344.333 C 273.891 343.074,273.729 343.049,274.614 344.871 C 276.401 348.548,269.522 352.176,264.815 350.038 C 256.703 346.353,259.552 334.777,268.546 334.876 L 271.258 334.906 271.906 332.537 L 272.553 330.167 271.860 329.950 C 270.189 329.427,266.161 329.683,264.000 330.448 M142.615 335.446 C 128.758 340.608,132.069 360.485,146.833 360.776 C 149.084 360.821,153.000 359.902,153.000 359.329 C 153.000 359.099,151.367 355.266,151.191 355.083 C 151.147 355.037,150.131 355.241,148.934 355.536 C 141.042 357.484,136.116 348.420,141.787 342.387 C 145.347 338.602,150.909 339.368,153.866 344.052 L 154.670 345.325 156.748 344.173 C 159.195 342.817,159.269 342.681,158.359 341.208 C 155.476 336.543,147.502 333.625,142.615 335.446 M226.667 342.967 C 225.312 343.147,225.175 343.248,225.248 344.000 C 225.292 344.458,225.702 347.823,226.158 351.478 C 226.615 355.133,226.945 358.166,226.892 358.220 C 226.838 358.273,223.734 355.242,219.992 351.484 L 213.190 344.652 210.895 344.970 C 209.634 345.145,208.545 345.344,208.477 345.412 C 208.348 345.541,211.325 369.757,211.490 369.930 C 211.657 370.105,215.922 369.588,216.313 369.346 C 216.646 369.140,215.645 359.109,214.830 354.500 C 214.682 353.660,215.811 354.648,221.910 360.695 L 229.167 367.889 231.133 367.617 C 232.215 367.467,233.170 367.275,233.255 367.189 C 233.403 367.041,230.835 344.985,230.487 343.417 C 230.308 342.609,229.798 342.549,226.667 342.967 M174.368 355.070 C 166.686 368.377,167.165 367.180,169.417 367.451 C 172.922 367.872,172.812 367.923,174.333 365.167 C 175.946 362.245,175.481 362.356,182.311 363.275 L 186.456 363.833 187.214 366.625 C 187.631 368.161,188.029 369.474,188.099 369.543 C 188.251 369.695,193.413 370.366,193.525 370.249 C 193.638 370.132,186.181 344.403,185.975 344.197 C 185.882 344.104,184.740 343.901,183.438 343.745 L 181.070 343.462 174.368 355.070 M183.796 353.917 C 184.321 355.887,184.829 357.782,184.925 358.127 C 185.090 358.716,184.945 358.740,182.553 358.516 C 177.925 358.082,178.084 358.416,180.451 354.092 C 182.932 349.562,182.641 349.577,183.796 353.917 " stroke="none" fill="#faf9f9" fill-rule="evenodd"></path><path id="path1" d="M190.000 89.035 C 105.865 96.384,60.259 192.804,107.891 262.629 C 156.970 334.574,266.798 324.722,301.844 245.232 C 336.080 167.580,274.549 81.650,190.000 89.035 M243.756 119.194 C 246.265 119.994,247.665 120.621,248.000 121.097 C 248.275 121.487,250.205 124.199,252.288 127.123 C 257.027 133.772,256.861 133.123,255.281 138.833 C 254.571 141.400,253.846 144.025,253.670 144.667 L 253.349 145.833 247.360 145.894 C 240.409 145.965,240.559 146.124,244.476 142.833 C 246.003 141.550,247.589 140.014,248.001 139.420 L 248.748 138.340 245.872 132.492 C 242.468 125.573,243.526 126.158,235.161 126.564 C 227.127 126.953,226.751 127.087,221.232 131.530 C 215.395 136.230,215.647 135.832,213.730 143.413 L 212.067 149.992 212.990 151.246 C 215.353 154.453,216.966 155.111,222.160 154.987 C 226.415 154.884,226.333 154.870,226.333 155.711 C 226.333 158.348,222.925 160.254,218.022 160.359 L 216.833 160.384 217.983 160.799 C 219.632 161.395,220.538 162.704,224.354 170.000 C 226.223 173.575,228.596 177.766,229.627 179.312 L 231.500 182.125 231.613 185.345 C 231.858 192.341,229.403 200.131,225.517 204.683 C 223.859 206.625,222.153 209.742,219.660 215.381 C 217.456 220.367,216.681 221.465,214.495 222.698 C 212.432 223.863,212.234 224.479,213.532 225.692 C 215.026 227.088,215.386 228.222,215.681 232.465 C 216.042 237.645,216.648 239.594,218.308 240.919 C 225.785 246.885,240.305 254.946,246.667 256.662 C 251.049 257.844,249.718 263.587,243.172 271.746 C 237.755 278.497,234.853 279.489,220.667 279.439 C 212.751 279.412,209.844 279.233,197.167 277.991 C 185.795 276.878,178.405 273.804,173.803 268.275 C 162.533 254.735,142.000 224.667,142.000 221.705 C 142.000 221.166,141.538 218.349,140.973 215.446 C 139.680 208.800,139.690 207.542,141.137 193.833 C 142.544 180.512,143.125 173.211,142.862 172.163 C 142.416 170.383,144.344 168.119,154.370 158.649 L 158.573 154.679 164.536 154.005 C 170.719 153.307,173.559 152.873,175.827 152.280 L 177.154 151.933 176.184 151.424 C 175.650 151.145,174.828 150.550,174.357 150.102 C 172.432 148.274,171.111 147.857,166.667 147.673 L 162.500 147.500 165.000 146.104 C 166.375 145.336,168.233 144.177,169.130 143.529 C 170.026 142.881,170.851 142.407,170.963 142.476 C 171.075 142.544,173.399 143.590,176.126 144.800 L 181.086 147.000 184.976 147.000 L 188.866 147.000 192.003 144.417 C 207.551 131.610,221.286 120.665,221.833 120.645 C 222.200 120.632,226.250 120.048,230.833 119.346 C 235.417 118.645,239.357 118.055,239.589 118.036 C 239.822 118.016,241.697 118.537,243.756 119.194 M179.833 162.364 C 172.177 162.860,162.872 163.688,161.500 163.995 C 159.934 164.346,158.977 165.350,153.875 172.002 L 150.422 176.504 149.708 185.169 C 147.603 210.719,147.739 220.206,150.255 223.270 C 152.265 225.720,154.286 228.610,164.188 243.203 C 173.738 257.278,177.314 262.292,178.721 263.580 C 181.747 266.351,193.147 268.370,211.252 269.342 C 220.023 269.813,223.331 268.989,228.725 264.993 C 232.228 262.398,232.474 260.593,229.591 258.667 C 228.630 258.025,225.367 255.638,222.339 253.362 C 215.372 248.125,215.166 248.003,213.291 248.001 C 211.033 247.999,210.876 247.609,211.878 244.483 C 212.844 241.466,212.901 241.924,210.671 234.705 C 209.913 232.252,208.906 229.504,208.434 228.600 C 206.715 225.314,207.810 220.183,211.099 216.113 C 212.122 214.846,214.525 211.190,216.438 207.988 C 218.351 204.786,220.465 201.268,221.135 200.169 C 222.693 197.617,224.340 192.501,224.571 189.497 L 224.751 187.161 222.487 183.164 C 217.966 175.179,216.587 172.914,215.520 171.718 C 214.922 171.048,213.114 168.775,211.503 166.667 C 209.892 164.558,208.529 162.780,208.473 162.714 C 208.263 162.466,204.081 165.222,202.040 166.954 L 199.912 168.758 196.476 168.583 C 191.270 168.317,189.907 167.376,189.108 163.500 L 188.833 162.167 186.500 162.125 C 185.217 162.102,182.217 162.209,179.833 162.364 M183.216 174.298 C 190.503 177.899,199.886 178.728,202.498 176.002 C 204.798 173.601,207.575 175.521,213.781 183.807 C 216.318 187.193,216.297 186.739,214.134 191.298 C 212.445 194.859,210.738 197.819,204.461 208.066 C 197.830 218.893,198.057 218.018,199.192 228.374 C 200.077 236.444,206.431 253.405,209.266 255.262 C 211.411 256.668,212.751 260.116,211.600 261.267 C 210.603 262.264,205.801 261.497,200.002 259.415 C 196.288 258.081,188.819 250.588,186.368 245.736 C 185.839 244.689,182.970 239.558,179.993 234.333 C 177.016 229.108,173.512 222.808,172.206 220.333 L 169.833 215.833 169.721 209.500 C 169.560 200.390,170.518 193.815,172.421 190.971 C 174.473 187.904,188.252 186.905,192.067 189.545 C 194.270 191.070,196.333 194.753,196.333 197.160 C 196.333 198.674,191.608 212.562,189.461 217.355 C 186.845 223.198,181.186 220.111,181.172 212.833 C 181.162 207.422,181.470 206.892,184.325 207.406 C 186.366 207.773,186.665 208.185,186.896 210.943 C 187.007 212.258,187.214 213.333,187.356 213.333 C 187.671 213.333,189.802 207.878,191.480 202.775 L 192.705 199.049 192.029 197.724 C 189.727 193.210,178.447 191.667,176.742 195.632 C 176.044 197.254,175.456 214.548,176.009 217.209 C 177.074 222.341,191.819 247.640,195.270 250.258 C 202.648 255.855,202.978 255.240,198.512 244.221 C 194.913 235.343,194.506 233.396,194.124 223.203 L 193.923 217.833 195.755 213.833 C 196.762 211.633,199.677 205.408,202.231 200.000 C 208.054 187.671,207.853 188.174,207.385 187.148 C 206.048 184.212,196.524 180.954,187.833 180.461 C 183.398 180.209,167.521 182.401,165.798 183.504 C 163.008 185.288,161.322 196.965,162.050 209.456 C 162.581 218.573,167.611 231.837,174.581 242.500 C 176.019 244.700,177.308 246.683,177.444 246.906 C 177.668 247.271,175.351 245.891,173.416 244.506 C 173.004 244.210,171.086 241.838,169.155 239.234 C 167.224 236.630,164.885 233.525,163.956 232.333 C 162.050 229.886,160.113 226.221,158.454 221.926 C 156.511 216.897,156.358 215.882,155.963 205.410 L 155.594 195.631 157.508 187.232 C 159.864 176.892,160.732 175.705,165.977 175.655 C 166.631 175.649,169.792 175.142,173.000 174.528 C 180.359 173.119,180.811 173.109,183.216 174.298 " stroke="none" fill="#440c04" fill-rule="evenodd"></path><path id="path2" d="M191.333 2.525 C 152.451 5.058,121.406 15.112,91.342 34.908 C -12.199 103.087,-28.077 248.941,58.367 337.807 C 135.250 416.843,261.671 417.683,339.677 339.677 C 435.755 243.600,408.484 81.772,286.167 22.136 C 257.532 8.175,220.900 0.600,191.333 2.525 M232.387 22.478 C 246.446 25.227,254.720 38.011,251.172 51.500 C 244.261 77.768,204.628 73.094,204.534 46.000 C 204.481 30.605,217.541 19.576,232.387 22.478 M174.180 24.174 C 188.038 27.712,190.722 42.921,178.852 50.654 C 175.793 52.648,172.617 53.783,166.553 55.053 C 160.065 56.411,160.438 55.728,161.984 63.421 C 163.477 70.850,163.603 70.466,159.369 71.396 C 155.026 72.351,155.817 74.360,150.849 49.752 C 146.729 29.342,146.496 27.837,147.409 27.490 C 153.298 25.253,170.203 23.159,174.180 24.174 M223.293 30.436 C 211.634 34.410,209.250 52.079,219.459 58.849 C 230.041 65.866,243.333 58.282,243.333 45.228 C 243.333 34.425,233.305 27.023,223.293 30.436 M166.500 31.236 C 163.679 31.588,156.780 33.108,156.417 33.457 C 155.819 34.031,158.598 47.946,159.414 48.460 C 160.097 48.891,168.515 47.327,170.810 46.343 C 179.883 42.454,176.332 30.006,166.500 31.236 M292.872 45.704 C 309.992 55.932,308.806 54.823,306.550 58.500 C 304.654 61.589,304.711 61.594,298.412 57.819 C 294.769 55.636,292.855 54.671,292.442 54.810 C 292.088 54.929,288.136 61.246,283.000 69.902 C 278.142 78.091,273.838 85.175,273.436 85.645 L 272.705 86.500 270.936 85.556 C 267.982 83.981,266.499 82.835,266.518 82.143 C 266.528 81.789,270.625 74.632,275.623 66.238 C 281.563 56.261,284.674 50.726,284.605 50.254 C 284.527 49.719,283.160 48.730,279.333 46.441 C 273.761 43.107,273.461 42.847,273.779 41.635 C 274.138 40.269,276.617 36.667,277.197 36.667 C 277.498 36.667,284.552 40.734,292.872 45.704 M129.347 58.321 C 134.840 68.843,139.333 77.798,139.333 78.222 C 139.333 79.219,133.673 82.223,132.760 81.712 C 131.988 81.280,112.363 43.696,112.347 42.618 C 112.331 41.555,117.606 38.542,118.745 38.964 C 119.136 39.108,123.023 46.207,129.347 58.321 M91.156 67.928 C 94.645 71.372,101.662 78.264,106.750 83.243 C 111.837 88.222,116.000 92.544,116.000 92.847 C 116.000 93.663,111.687 98.000,110.876 98.000 C 110.446 98.000,108.405 96.232,105.347 93.211 C 98.570 86.514,100.327 86.244,91.402 95.354 C 87.142 99.703,83.792 103.391,83.739 103.791 C 83.669 104.321,84.950 105.801,88.823 109.663 C 91.670 112.502,93.997 115.052,93.993 115.329 C 93.983 115.972,89.463 120.667,88.854 120.667 C 88.179 120.667,56.999 90.053,57.005 89.395 C 57.011 88.724,61.344 84.000,61.953 84.000 C 62.331 84.000,72.071 93.094,75.484 96.634 C 76.249 97.426,77.112 98.000,77.541 98.000 C 78.391 98.000,93.096 83.076,93.267 82.042 C 93.336 81.622,91.147 79.293,86.183 74.504 C 77.896 66.510,78.145 67.045,81.241 63.925 C 84.265 60.878,83.838 60.706,91.156 67.928 M330.909 75.583 C 334.184 79.309,335.646 77.371,318.417 92.144 C 311.221 98.313,305.333 103.546,305.333 103.771 C 305.333 103.997,308.429 107.778,312.212 112.174 C 321.381 122.826,320.794 121.482,317.500 124.289 C 314.933 126.478,314.789 126.458,312.224 123.583 C 304.741 115.198,294.668 103.079,294.667 102.462 C 294.667 101.621,327.360 73.333,328.333 73.333 C 328.662 73.333,329.821 74.346,330.909 75.583 M211.000 81.488 C 294.219 89.650,343.671 178.116,306.687 252.667 C 274.782 316.979,194.095 338.737,134.333 299.142 C 93.944 272.383,73.937 224.340,83.317 176.638 C 94.979 117.339,150.987 75.602,211.000 81.488 M47.223 116.258 C 47.438 116.395,48.220 117.762,48.962 119.296 C 50.542 122.562,50.472 122.914,48.002 124.166 C 36.544 129.972,36.546 145.806,48.006 151.591 C 60.456 157.876,73.071 148.537,70.510 134.931 C 69.746 130.873,69.738 130.889,73.111 129.860 C 77.312 128.578,77.343 128.592,78.151 132.021 C 82.135 148.921,67.181 165.053,50.774 161.556 C 32.478 157.656,25.591 137.735,37.376 122.798 C 40.238 119.169,45.895 115.413,47.223 116.258 M362.603 120.954 C 363.146 121.298,374.000 150.131,374.000 151.228 C 374.000 152.082,372.404 152.960,369.387 153.767 C 367.475 154.279,367.843 154.949,363.183 142.449 C 358.974 131.158,358.902 131.000,358.000 131.000 C 357.313 131.000,346.693 134.938,346.083 135.419 C 345.398 135.960,345.548 136.502,348.684 144.832 C 352.294 154.421,352.285 154.121,349.005 155.377 C 344.931 156.939,345.733 157.834,341.796 147.339 C 338.229 137.831,338.543 138.190,334.912 139.462 C 329.278 141.435,329.323 139.937,334.483 153.736 C 339.210 166.378,339.139 165.579,335.660 166.887 C 331.802 168.337,332.605 169.552,326.253 152.667 C 320.703 137.913,320.298 136.618,321.072 136.103 C 321.581 135.765,361.379 120.721,361.833 120.696 C 362.017 120.685,362.363 120.802,362.603 120.954 M43.899 197.985 C 46.953 199.848,47.019 204.035,44.020 205.795 C 41.802 207.098,38.849 206.272,37.602 204.000 C 36.031 201.140,38.351 197.336,41.667 197.336 C 42.308 197.336,43.313 197.628,43.899 197.985 M360.701 198.090 C 365.233 201.118,361.893 208.117,356.838 206.186 C 352.105 204.379,353.295 197.333,358.333 197.333 C 359.062 197.333,360.032 197.643,360.701 198.090 M62.211 241.750 L 63.241 244.500 61.049 247.333 C 59.843 248.892,58.136 251.091,57.254 252.221 L 55.651 254.276 57.909 254.778 C 59.151 255.055,61.817 255.606,63.833 256.004 C 68.173 256.861,67.722 256.521,68.948 259.854 L 69.937 262.541 58.098 266.956 C 51.587 269.384,46.223 271.324,46.178 271.268 C 45.717 270.687,44.325 266.216,44.544 266.020 C 44.703 265.878,48.031 264.589,51.938 263.156 C 55.973 261.677,58.854 260.452,58.605 260.323 C 58.364 260.198,55.692 259.533,52.667 258.844 C 49.642 258.156,47.119 257.549,47.060 257.496 C 47.002 257.442,48.596 255.171,50.603 252.449 C 52.610 249.727,54.226 247.469,54.195 247.430 C 54.164 247.392,50.956 248.554,47.067 250.014 C 43.178 251.473,39.809 252.667,39.580 252.667 C 38.813 252.667,37.244 247.681,37.927 247.416 C 44.573 244.846,60.299 239.046,60.674 239.026 C 61.013 239.009,61.524 239.913,62.211 241.750 M363.269 244.697 C 364.404 245.081,365.333 245.528,365.333 245.692 C 365.333 246.147,359.932 262.132,359.681 262.420 C 359.512 262.613,336.130 254.903,335.753 254.530 C 335.510 254.290,337.459 249.333,337.797 249.333 C 338.019 249.333,342.329 250.746,347.376 252.472 L 356.551 255.612 358.526 249.808 C 359.612 246.616,360.658 244.003,360.852 244.002 C 361.046 244.001,362.133 244.314,363.269 244.697 M82.018 282.214 C 86.091 288.160,87.303 290.158,86.958 290.356 C 86.706 290.500,85.761 291.147,84.857 291.793 L 83.213 292.968 82.330 291.734 C 81.844 291.055,80.139 288.587,78.541 286.250 C 76.943 283.912,75.554 282.000,75.456 282.000 C 75.174 282.000,71.675 284.479,71.671 284.681 C 71.668 284.780,73.092 286.945,74.833 289.491 C 78.583 294.973,78.444 294.222,76.025 295.928 L 74.050 297.321 72.580 295.244 C 71.771 294.101,70.337 292.015,69.393 290.606 C 67.228 287.375,67.488 287.470,65.100 289.039 L 63.072 290.372 66.869 295.908 C 68.958 298.952,70.661 301.531,70.654 301.638 C 70.638 301.886,67.047 304.333,66.700 304.333 C 66.430 304.333,55.557 288.648,55.733 288.512 C 56.162 288.178,76.481 274.333,76.542 274.333 C 76.585 274.333,79.049 277.879,82.018 282.214 M350.309 277.206 C 351.423 277.869,352.333 278.523,352.333 278.660 C 352.333 279.476,343.224 294.029,342.812 293.871 C 342.030 293.571,322.533 281.941,322.033 281.476 C 321.636 281.108,321.778 280.685,322.972 278.674 L 324.379 276.307 325.439 276.952 C 326.023 277.307,329.903 279.622,334.062 282.096 L 341.623 286.596 344.035 282.548 C 347.172 277.283,347.978 276.000,348.147 276.000 C 348.223 276.000,349.196 276.543,350.309 277.206 M322.575 301.464 C 327.382 305.628,331.379 309.140,331.456 309.268 C 331.532 309.395,330.749 310.425,329.714 311.557 L 327.833 313.613 318.500 305.494 C 313.367 301.029,309.167 297.206,309.167 297.000 C 309.167 295.793,312.501 292.709,313.167 293.300 C 313.533 293.626,317.767 297.300,322.575 301.464 M98.457 302.279 L 99.414 303.287 98.606 307.988 C 98.110 310.866,97.933 312.639,98.148 312.563 C 98.342 312.494,100.402 311.943,102.727 311.339 L 106.954 310.241 108.227 311.258 C 110.445 313.029,111.833 314.627,111.305 314.800 C 111.046 314.886,107.845 315.642,104.192 316.480 C 100.539 317.319,97.487 318.068,97.411 318.145 C 97.334 318.222,96.797 321.601,96.219 325.654 C 95.640 329.708,95.072 333.056,94.956 333.095 C 94.840 333.135,93.700 332.238,92.423 331.103 L 90.100 329.039 90.917 324.164 C 91.366 321.483,91.677 319.233,91.607 319.163 C 91.538 319.094,89.460 319.550,86.991 320.177 C 84.521 320.805,82.348 321.321,82.162 321.326 C 81.611 321.338,77.267 317.263,77.562 317.010 C 77.711 316.883,81.058 316.051,85.000 315.163 C 88.942 314.274,92.190 313.537,92.219 313.524 C 92.248 313.511,92.760 310.169,93.358 306.099 L 94.444 298.697 95.972 299.984 C 96.812 300.692,97.931 301.725,98.457 302.279 M301.940 310.970 C 305.818 312.948,307.927 318.262,306.177 321.646 C 305.486 322.983,304.962 322.657,310.767 324.499 C 313.481 325.360,315.656 326.185,315.600 326.332 C 315.545 326.480,314.436 327.430,313.136 328.445 L 310.771 330.289 306.164 328.827 L 301.557 327.364 300.195 328.408 C 299.446 328.982,298.708 329.559,298.554 329.689 C 298.400 329.819,299.351 331.289,300.667 332.955 C 301.984 334.622,303.009 336.131,302.947 336.309 C 302.762 336.836,298.951 339.676,298.665 339.499 C 298.251 339.243,283.676 320.746,283.474 320.220 C 283.294 319.751,291.252 313.146,293.832 311.623 C 296.713 309.923,299.456 309.702,301.940 310.970 M295.633 316.752 C 293.855 317.860,291.030 320.124,291.014 320.454 C 290.997 320.798,294.866 325.695,295.168 325.712 C 295.749 325.744,300.398 321.703,300.833 320.788 C 302.411 317.462,298.884 314.725,295.633 316.752 M125.261 323.355 C 126.579 324.199,127.272 324.845,127.131 325.098 C 125.605 327.845,114.180 346.000,113.978 346.000 C 113.687 346.000,109.333 343.331,109.333 343.153 C 109.333 342.681,122.483 322.002,122.780 322.007 C 122.993 322.011,124.109 322.618,125.261 323.355 M271.500 329.635 C 272.667 329.894,272.716 330.416,271.848 333.400 L 271.302 335.280 268.880 335.096 C 263.886 334.719,260.360 337.651,260.341 342.200 C 260.309 349.593,267.951 353.148,273.457 348.302 C 275.200 346.767,275.266 346.494,274.331 344.663 L 273.663 343.352 271.146 344.499 L 268.629 345.646 267.648 343.458 C 267.108 342.255,266.667 341.228,266.667 341.176 C 266.667 341.027,276.247 336.666,276.557 336.674 C 276.709 336.678,277.833 338.891,279.056 341.591 L 281.278 346.500 280.437 348.051 C 274.376 359.226,258.517 358.319,254.955 346.594 C 252.049 337.025,261.441 327.398,271.500 329.635 M150.023 335.198 C 154.547 336.527,160.573 341.693,159.112 342.990 C 157.612 344.321,154.570 345.465,154.212 344.833 C 150.233 337.822,141.165 339.099,139.690 346.877 C 138.589 352.684,143.844 357.059,149.724 355.232 L 151.281 354.748 152.175 356.790 C 152.667 357.914,153.141 359.011,153.229 359.228 C 153.464 359.812,149.288 361.000,147.000 361.000 C 141.096 361.000,135.278 356.662,133.992 351.301 C 131.617 341.401,140.560 332.419,150.023 335.198 M232.096 354.744 C 232.948 361.569,233.538 367.253,233.406 367.373 C 233.275 367.493,232.178 367.693,230.971 367.817 L 228.775 368.042 221.837 360.937 C 215.519 354.467,214.918 353.937,215.101 355.000 C 215.212 355.642,215.613 358.867,215.993 362.167 C 216.372 365.467,216.752 368.483,216.836 368.870 C 216.973 369.498,212.009 370.651,211.381 370.137 C 211.226 370.010,208.341 347.107,208.337 345.971 C 208.333 345.147,208.446 345.095,210.860 344.788 L 213.387 344.468 220.027 351.251 C 223.679 354.982,226.666 357.839,226.665 357.601 C 226.665 357.362,226.290 354.242,225.833 350.667 C 225.377 347.092,225.002 343.917,225.001 343.612 C 225.000 343.095,227.173 342.541,229.856 342.376 C 230.516 342.335,230.613 342.868,232.096 354.744 M185.698 343.863 C 186.156 343.991,193.676 368.823,193.669 370.182 C 193.667 370.425,192.792 370.425,190.783 370.182 L 187.900 369.833 187.142 367.053 C 186.725 365.524,186.306 364.195,186.211 364.099 C 186.037 363.926,175.912 362.621,175.821 362.760 C 175.794 362.800,175.138 363.996,174.363 365.417 C 173.588 366.837,172.776 367.997,172.560 367.993 C 171.782 367.980,167.537 367.315,167.408 367.186 C 167.283 367.061,180.053 344.652,180.778 343.724 C 181.102 343.310,184.014 343.392,185.698 343.863 M180.667 354.070 C 179.658 355.910,178.790 357.527,178.737 357.663 C 178.684 357.799,179.584 358.012,180.737 358.136 C 181.890 358.259,183.302 358.442,183.875 358.543 L 184.916 358.725 183.867 354.883 C 183.291 352.770,182.747 350.970,182.660 350.883 C 182.572 350.796,181.675 352.231,180.667 354.070 " stroke="none" fill="#ac1c14" fill-rule="evenodd"></path><path id="path3" d="M244.812 62.417 L 243.833 63.500 244.917 62.521 C 245.512 61.983,246.000 61.495,246.000 61.438 C 246.000 61.180,245.725 61.407,244.812 62.417 M83.986 72.417 C 84.803 73.287,85.516 74.000,85.569 74.000 C 85.820 74.000,85.555 73.701,84.083 72.319 L 82.500 70.833 83.986 72.417 M99.000 75.833 C 99.996 76.842,100.886 77.667,100.977 77.667 C 101.069 77.667,100.329 76.842,99.333 75.833 C 98.338 74.825,97.448 74.000,97.356 74.000 C 97.264 74.000,98.004 74.825,99.000 75.833 M60.146 85.417 L 59.167 86.500 60.250 85.521 C 61.260 84.608,61.487 84.333,61.229 84.333 C 61.172 84.333,60.684 84.821,60.146 85.417 M89.154 86.750 L 87.500 88.500 89.250 86.846 C 90.876 85.309,91.153 85.000,90.904 85.000 C 90.851 85.000,90.064 85.787,89.154 86.750 M113.833 90.333 C 114.736 91.250,115.550 92.000,115.642 92.000 C 115.733 92.000,115.070 91.250,114.167 90.333 C 113.264 89.417,112.450 88.667,112.358 88.667 C 112.267 88.667,112.930 89.417,113.833 90.333 M69.833 91.333 C 70.736 92.250,71.550 93.000,71.642 93.000 C 71.733 93.000,71.070 92.250,70.167 91.333 C 69.264 90.417,68.450 89.667,68.358 89.667 C 68.267 89.667,68.930 90.417,69.833 91.333 M93.487 93.083 L 91.833 94.833 93.583 93.179 C 94.546 92.269,95.333 91.482,95.333 91.429 C 95.333 91.180,95.025 91.457,93.487 93.083 M69.167 102.000 C 70.070 102.917,70.883 103.667,70.975 103.667 C 71.067 103.667,70.403 102.917,69.500 102.000 C 68.597 101.083,67.783 100.333,67.692 100.333 C 67.600 100.333,68.264 101.083,69.167 102.000 M84.667 105.833 C 85.289 106.475,85.872 107.000,85.964 107.000 C 86.056 107.000,85.622 106.475,85.000 105.833 C 84.378 105.192,83.794 104.667,83.703 104.667 C 83.611 104.667,84.045 105.192,84.667 105.833 M83.319 115.750 C 84.137 116.621,84.849 117.333,84.903 117.333 C 85.153 117.333,84.888 117.034,83.417 115.653 L 81.833 114.167 83.319 115.750 M38.812 121.083 L 37.833 122.167 38.917 121.188 C 39.512 120.649,40.000 120.162,40.000 120.104 C 40.000 119.847,39.725 120.074,38.812 121.083 M233.589 126.575 C 234.188 126.649,235.088 126.648,235.589 126.572 C 236.090 126.495,235.600 126.435,234.500 126.437 C 233.400 126.438,232.990 126.501,233.589 126.575 M39.077 138.000 C 39.077 138.642,39.146 138.904,39.230 138.583 C 39.314 138.262,39.314 137.737,39.230 137.417 C 39.146 137.096,39.077 137.358,39.077 138.000 M31.429 138.833 C 31.431 139.750,31.496 140.085,31.573 139.579 C 31.649 139.072,31.647 138.322,31.568 137.912 C 31.489 137.502,31.426 137.917,31.429 138.833 M166.250 147.574 C 166.846 147.648,167.821 147.648,168.417 147.574 C 169.012 147.501,168.525 147.440,167.333 147.440 C 166.142 147.440,165.654 147.501,166.250 147.574 M151.990 160.917 L 149.833 163.167 152.083 161.010 C 153.321 159.823,154.333 158.811,154.333 158.760 C 154.333 158.514,153.994 158.827,151.990 160.917 M182.417 162.230 C 182.737 162.314,183.262 162.314,183.583 162.230 C 183.904 162.146,183.642 162.077,183.000 162.077 C 182.358 162.077,182.096 162.146,182.417 162.230 M176.750 162.563 C 177.071 162.647,177.596 162.647,177.917 162.563 C 178.237 162.479,177.975 162.411,177.333 162.411 C 176.692 162.411,176.429 162.479,176.750 162.563 M208.500 177.667 C 209.216 178.400,209.877 179.000,209.969 179.000 C 210.060 179.000,209.549 178.400,208.833 177.667 C 208.117 176.933,207.456 176.333,207.365 176.333 C 207.273 176.333,207.784 176.933,208.500 177.667 M224.744 188.000 C 224.744 188.642,224.813 188.904,224.896 188.583 C 224.980 188.262,224.980 187.737,224.896 187.417 C 224.813 187.096,224.744 187.358,224.744 188.000 M183.417 188.245 C 184.287 188.314,185.713 188.314,186.583 188.245 C 187.454 188.176,186.742 188.120,185.000 188.120 C 183.258 188.120,182.546 188.176,183.417 188.245 M181.921 193.569 C 182.335 193.649,182.935 193.646,183.254 193.562 C 183.573 193.479,183.233 193.414,182.500 193.417 C 181.767 193.421,181.506 193.489,181.921 193.569 M162.077 195.000 C 162.077 195.642,162.146 195.904,162.230 195.583 C 162.314 195.262,162.314 194.737,162.230 194.417 C 162.146 194.096,162.077 194.358,162.077 195.000 M155.773 199.667 C 155.773 200.858,155.834 201.346,155.908 200.750 C 155.982 200.154,155.982 199.179,155.908 198.583 C 155.834 197.987,155.773 198.475,155.773 199.667 M148.411 201.000 C 148.411 201.642,148.479 201.904,148.563 201.583 C 148.647 201.262,148.647 200.737,148.563 200.417 C 148.479 200.096,148.411 200.358,148.411 201.000 M161.781 202.833 C 161.782 204.300,161.841 204.859,161.911 204.075 C 161.982 203.291,161.981 202.091,161.909 201.408 C 161.837 200.725,161.780 201.367,161.781 202.833 M161.770 207.833 C 161.772 208.933,161.834 209.343,161.908 208.744 C 161.982 208.145,161.981 207.245,161.905 206.744 C 161.829 206.243,161.768 206.733,161.770 207.833 M148.128 211.667 C 148.128 213.958,148.182 214.896,148.247 213.750 C 148.312 212.604,148.312 210.729,148.247 209.583 C 148.182 208.438,148.128 209.375,148.128 211.667 M156.100 209.667 C 156.100 210.675,156.162 211.088,156.239 210.583 C 156.315 210.079,156.315 209.254,156.239 208.750 C 156.162 208.246,156.100 208.658,156.100 209.667 M175.411 213.000 C 175.411 213.642,175.479 213.904,175.563 213.583 C 175.647 213.262,175.647 212.737,175.563 212.417 C 175.479 212.096,175.411 212.358,175.411 213.000 M198.424 220.333 C 198.424 221.158,198.489 221.496,198.569 221.083 C 198.648 220.671,198.648 219.996,198.569 219.583 C 198.489 219.171,198.424 219.508,198.424 220.333 M194.077 224.000 C 194.077 224.642,194.146 224.904,194.230 224.583 C 194.314 224.262,194.314 223.737,194.230 223.417 C 194.146 223.096,194.077 223.358,194.077 224.000 M215.443 231.833 C 215.444 233.117,215.504 233.601,215.577 232.909 C 215.649 232.218,215.648 231.168,215.574 230.576 C 215.500 229.984,215.441 230.550,215.443 231.833 M172.000 243.104 C 172.000 243.162,172.487 243.649,173.083 244.188 L 174.167 245.167 173.188 244.083 C 172.275 243.074,172.000 242.847,172.000 243.104 M212.254 247.902 C 212.669 247.982,213.269 247.979,213.587 247.896 C 213.906 247.812,213.567 247.747,212.833 247.751 C 212.100 247.754,211.839 247.823,212.254 247.902 M191.000 252.104 C 191.000 252.162,191.487 252.649,192.083 253.188 L 193.167 254.167 192.188 253.083 C 191.275 252.074,191.000 251.847,191.000 252.104 M174.667 269.438 C 174.667 269.495,175.154 269.983,175.750 270.521 L 176.833 271.500 175.854 270.417 C 174.942 269.407,174.667 269.180,174.667 269.438 M212.583 269.569 C 212.996 269.648,213.671 269.648,214.083 269.569 C 214.496 269.489,214.158 269.424,213.333 269.424 C 212.508 269.424,212.171 269.489,212.583 269.569 M219.250 279.580 C 220.396 279.645,222.271 279.645,223.417 279.580 C 224.563 279.515,223.625 279.462,221.333 279.462 C 219.042 279.462,218.104 279.515,219.250 279.580 M222.167 353.667 C 223.255 354.767,224.221 355.667,224.312 355.667 C 224.404 355.667,223.589 354.767,222.500 353.667 C 221.411 352.567,220.446 351.667,220.354 351.667 C 220.263 351.667,221.078 352.567,222.167 353.667 M219.667 358.833 C 220.662 359.842,221.552 360.667,221.644 360.667 C 221.736 360.667,220.996 359.842,220.000 358.833 C 219.004 357.825,218.114 357.000,218.023 357.000 C 217.931 357.000,218.671 357.825,219.667 358.833 " stroke="none" fill="#af7167" fill-rule="evenodd"></path><path id="path4" d="M226.417 22.243 C 227.104 22.315,228.229 22.315,228.917 22.243 C 229.604 22.171,229.042 22.112,227.667 22.112 C 226.292 22.112,225.729 22.171,226.417 22.243 M181.333 27.771 C 181.333 27.828,181.821 28.316,182.417 28.854 L 183.500 29.833 182.521 28.750 C 181.608 27.740,181.333 27.513,181.333 27.771 M227.256 29.575 C 227.855 29.649,228.755 29.648,229.256 29.572 C 229.757 29.495,229.267 29.435,228.167 29.437 C 227.067 29.438,226.657 29.501,227.256 29.575 M176.077 39.000 C 176.077 39.642,176.146 39.904,176.230 39.583 C 176.314 39.262,176.314 38.737,176.230 38.417 C 176.146 38.096,176.077 38.358,176.077 39.000 M243.437 45.167 C 243.438 46.267,243.501 46.676,243.575 46.077 C 243.649 45.478,243.648 44.578,243.572 44.077 C 243.495 43.576,243.435 44.067,243.437 45.167 M251.773 45.333 C 251.773 46.525,251.834 47.012,251.908 46.417 C 251.982 45.821,251.982 44.846,251.908 44.250 C 251.834 43.654,251.773 44.142,251.773 45.333 M204.443 45.833 C 204.444 47.117,204.504 47.601,204.577 46.909 C 204.649 46.218,204.648 45.168,204.574 44.576 C 204.500 43.984,204.441 44.550,204.443 45.833 M212.770 45.833 C 212.772 46.933,212.834 47.343,212.908 46.744 C 212.982 46.145,212.981 45.245,212.905 44.744 C 212.829 44.243,212.768 44.733,212.770 45.833 M80.655 64.583 L 78.833 66.500 80.750 64.678 C 82.531 62.985,82.819 62.667,82.572 62.667 C 82.520 62.667,81.657 63.529,80.655 64.583 M89.167 66.333 C 90.809 67.983,92.228 69.333,92.319 69.333 C 92.411 69.333,91.142 67.983,89.500 66.333 C 87.858 64.683,86.439 63.333,86.347 63.333 C 86.256 63.333,87.524 64.683,89.167 66.333 M80.667 69.167 C 81.662 70.175,82.552 71.000,82.644 71.000 C 82.736 71.000,81.996 70.175,81.000 69.167 C 80.004 68.158,79.114 67.333,79.023 67.333 C 78.931 67.333,79.671 68.158,80.667 69.167 M103.833 80.667 C 105.476 82.317,106.894 83.667,106.986 83.667 C 107.078 83.667,105.809 82.317,104.167 80.667 C 102.524 79.017,101.106 77.667,101.014 77.667 C 100.922 77.667,102.191 79.017,103.833 80.667 M91.833 80.000 C 92.549 80.733,93.210 81.333,93.302 81.333 C 93.394 81.333,92.883 80.733,92.167 80.000 C 91.451 79.267,90.790 78.667,90.698 78.667 C 90.606 78.667,91.117 79.267,91.833 80.000 M91.982 83.917 L 90.833 85.167 92.083 84.018 C 93.247 82.949,93.487 82.667,93.232 82.667 C 93.176 82.667,92.614 83.229,91.982 83.917 M71.667 93.092 C 71.667 93.142,72.829 94.305,74.250 95.675 L 76.833 98.167 74.342 95.583 C 72.027 93.184,71.667 92.848,71.667 93.092 M80.333 95.833 C 78.968 97.208,77.925 98.333,78.017 98.333 C 78.108 98.333,79.301 97.208,80.667 95.833 C 82.032 94.458,83.075 93.333,82.983 93.333 C 82.892 93.333,81.699 94.458,80.333 95.833 M107.667 95.500 C 108.848 96.692,109.889 97.667,109.981 97.667 C 110.072 97.667,109.181 96.692,108.000 95.500 C 106.819 94.308,105.778 93.333,105.686 93.333 C 105.594 93.333,106.486 94.308,107.667 95.500 M64.333 97.167 C 66.068 98.908,67.562 100.333,67.653 100.333 C 67.745 100.333,66.401 98.908,64.667 97.167 C 62.932 95.425,61.438 94.000,61.347 94.000 C 61.255 94.000,62.599 95.425,64.333 97.167 M113.117 96.006 C 111.989 97.103,111.169 98.000,111.294 98.000 C 111.419 98.000,112.411 97.100,113.500 96.000 C 116.061 93.412,115.780 93.416,113.117 96.006 M88.826 97.750 L 85.833 100.833 88.917 97.840 C 91.780 95.060,92.152 94.667,91.910 94.667 C 91.860 94.667,90.473 96.054,88.826 97.750 M88.667 109.833 C 90.217 111.392,91.560 112.667,91.652 112.667 C 91.744 112.667,90.550 111.392,89.000 109.833 C 87.450 108.275,86.106 107.000,86.015 107.000 C 85.923 107.000,87.116 108.275,88.667 109.833 M78.667 111.167 C 80.401 112.908,81.895 114.333,81.987 114.333 C 82.078 114.333,80.734 112.908,79.000 111.167 C 77.266 109.425,75.772 108.000,75.680 108.000 C 75.588 108.000,76.932 109.425,78.667 111.167 M70.982 155.583 L 69.833 156.833 71.083 155.685 C 72.247 154.615,72.487 154.333,72.232 154.333 C 72.176 154.333,71.614 154.896,70.982 155.583 M148.649 164.250 L 147.500 165.500 148.750 164.351 C 149.438 163.719,150.000 163.157,150.000 163.101 C 150.000 162.847,149.718 163.087,148.649 164.250 M185.083 180.230 C 185.404 180.314,185.929 180.314,186.250 180.230 C 186.571 180.146,186.308 180.077,185.667 180.077 C 185.025 180.077,184.762 180.146,185.083 180.230 M155.744 196.667 C 155.744 197.308,155.813 197.571,155.896 197.250 C 155.980 196.929,155.980 196.404,155.896 196.083 C 155.813 195.762,155.744 196.025,155.744 196.667 M41.083 197.563 C 41.404 197.647,41.929 197.647,42.250 197.563 C 42.571 197.479,42.308 197.411,41.667 197.411 C 41.025 197.411,40.762 197.479,41.083 197.563 M357.750 197.563 C 358.071 197.647,358.596 197.647,358.917 197.563 C 359.238 197.479,358.975 197.411,358.333 197.411 C 357.692 197.411,357.429 197.479,357.750 197.563 M175.796 204.500 C 175.797 206.883,175.850 207.815,175.914 206.569 C 175.978 205.324,175.978 203.374,175.913 202.236 C 175.848 201.098,175.796 202.117,175.796 204.500 M148.077 206.667 C 148.077 207.308,148.146 207.571,148.230 207.250 C 148.314 206.929,148.314 206.404,148.230 206.083 C 148.146 205.762,148.077 206.025,148.077 206.667 M194.167 255.333 C 194.883 256.067,195.544 256.667,195.635 256.667 C 195.727 256.667,195.216 256.067,194.500 255.333 C 193.784 254.600,193.123 254.000,193.031 254.000 C 192.940 254.000,193.451 254.600,194.167 255.333 M78.333 318.167 C 78.955 318.808,79.539 319.333,79.631 319.333 C 79.722 319.333,79.289 318.808,78.667 318.167 C 78.045 317.525,77.461 317.000,77.369 317.000 C 77.278 317.000,77.711 317.525,78.333 318.167 M267.750 329.572 C 268.254 329.648,269.079 329.648,269.583 329.572 C 270.087 329.496,269.675 329.433,268.667 329.433 C 267.658 329.433,267.246 329.496,267.750 329.572 M145.417 334.905 C 145.921 334.982,146.746 334.982,147.250 334.905 C 147.754 334.829,147.342 334.767,146.333 334.767 C 145.325 334.767,144.912 334.829,145.417 334.905 M267.587 334.902 C 268.002 334.982,268.602 334.979,268.921 334.896 C 269.239 334.812,268.900 334.747,268.167 334.751 C 267.433 334.754,267.173 334.823,267.587 334.902 M155.667 338.104 C 155.667 338.162,156.154 338.649,156.750 339.188 L 157.833 340.167 156.854 339.083 C 155.942 338.074,155.667 337.847,155.667 338.104 M260.091 342.333 C 260.091 343.158,260.156 343.496,260.235 343.083 C 260.315 342.671,260.315 341.996,260.235 341.583 C 260.156 341.171,260.091 341.508,260.091 342.333 M254.433 343.000 C 254.433 344.008,254.496 344.421,254.572 343.917 C 254.648 343.412,254.648 342.587,254.572 342.083 C 254.496 341.579,254.433 341.992,254.433 343.000 M216.833 348.333 C 218.660 350.167,220.229 351.667,220.321 351.667 C 220.412 351.667,218.993 350.167,217.167 348.333 C 215.340 346.500,213.771 345.000,213.679 345.000 C 213.588 345.000,215.007 346.500,216.833 348.333 M225.167 364.333 C 227.177 366.350,228.897 368.000,228.989 368.000 C 229.080 368.000,227.510 366.350,225.500 364.333 C 223.490 362.317,221.770 360.667,221.678 360.667 C 221.586 360.667,223.156 362.317,225.167 364.333 " stroke="none" fill="#d48780" fill-rule="evenodd"></path></g></svg>